PathFileType	4	(X/Y/Z)	E:\Qualisys_Data\Carbon_Farble_Plate\Data\Amateur_Runner\S2\T1\S2T1V12_c3d.trc
DataRate	CameraRate	NumFrames	NumMarkers	Units	OrigDataRate	OrigDataStartFrame	OrigNumFrames
200.000000	200.000000	5	39	mm	200.000000	0	320
Frame#	Time	LSHO			RSHO			LICST			RICST			LASIS			LHEEL			RASIS			LTROC			RTROC			SACR			LTH1			LSK4			LTH2			LTH3			RHM5			LSK2			LTH4			RTH1			LTOE			RTH2			RTH3			RTH4			LLEP			RLEP			LSK1			LSK3			RSK1			LHM5			RSK2			LFT1			RSK3			RSK4			LLME			RLME			RTOE			RHEEL			RFT1			RFT2			LFT2			
		X1	Y1	Z1	X2	Y2	Z2	X3	Y3	Z3	X4	Y4	Z4	X5	Y5	Z5	X6	Y6	Z6	X7	Y7	Z7	X8	Y8	Z8	X9	Y9	Z9	X10	Y10	Z10	X11	Y11	Z11	X12	Y12	Z12	X13	Y13	Z13	X14	Y14	Z14	X15	Y15	Z15	X16	Y16	Z16	X17	Y17	Z17	X18	Y18	Z18	X19	Y19	Z19	X20	Y20	Z20	X21	Y21	Z21	X22	Y22	Z22	X23	Y23	Z23	X24	Y24	Z24	X25	Y25	Z25	X26	Y26	Z26	X27	Y27	Z27	X28	Y28	Z28	X29	Y29	Z29	X30	Y30	Z30	X31	Y31	Z31	X32	Y32	Z32	X33	Y33	Z33	X34	Y34	Z34	X35	Y35	Z35	X36	Y36	Z36	X37	Y37	Z37	X38	Y38	Z38	X39	Y39	Z39	

1	0	-2250.738037109375	1515.679931640625	-457.3159790039062	-2290.900146484375	1500.058227539062	-151.9493713378906	-2322.630615234375	1051.285522460938	-443.4116516113281	-2313.46826171875	1054.216552734375	-147.0400390625	-2273.58935546875	996.89599609375	-431.2308959960938	-2778.862548828125	312.1221923828125	-354.81640625	-2257.628662109375	1004.878295898438	-175.7404327392578	-2422.503173828125	951.4296875	-436.8863525390625	-2386.847900390625	953.93798828125	-126.6311492919922	-2412.241943359375	1097.7939453125	-299.6844482421875	-2394.2314453125	696.68115234375	-449.9281311035156	-2677.595458984375	424.6916198730469	-428.753173828125	-2471.209228515625	727.6755981445312	-448.418701171875	-2432.158203125	602.553466796875	-430.6016235351562	-2120.6376953125	122.3639144897461	-141.5258026123047	-2617.5146484375	503.1127014160156	-440.2754821777344	-2508.71484375	636.521240234375	-424.4135437011719	-2180.321044921875	723.5227661132812	-134.9473419189453	-2714.01806640625	74.24147033691406	-353.0224304199219	-2253.6630859375	699.2069091796875	-135.1158599853516	-2150.177978515625	627.9185180664062	-153.5958251953125	-2227.38427734375	607.3291625976562	-149.3352813720703	-2494.60107421875	576.206298828125	-428.1496887207031	-2196.674560546875	574.220458984375	-149.6479949951172	-2555.6875	455.4501037597656	-436.8262329101562	-2616.14697265625	375.3587646484375	-431.4500427246094	-2173.618408203125	448.4425354003906	-140.7406463623047	-2755.92822265625	109.1999435424805	-413.7453002929688	-2254.211181640625	458.8452453613281	-143.3660888671875	-2793.02978515625	296.0585632324219	-320.8013305664062	-2186.7724609375	347.5500183105469	-153.6143493652344	-2265.8662109375	360.5744934082031	-157.1174468994141	-2752.955322265625	258.3330993652344	-409.2918701171875	-2241.7919921875	164.5776214599609	-186.0189666748047	-2053.381103515625	148.7800445556641	-191.0334625244141	-2292.552490234375	147.0485534667969	-251.1401062011719	-2269.654296875	122.2983703613281	-280.2197570800781	-2288.6328125	119.6287689208984	-224.0885620117188	-2810.065673828125	299.01220703125	-375.1846008300781
2	0.005	-2234.781982421875	1517.038330078125	-456.366455078125	-2274.934326171875	1500.639404296875	-151.0356292724609	-2305.053955078125	1052.260009765625	-443.36376953125	-2297.26220703125	1054.728515625	-147.1693420410156	-2256.1962890625	998.0527954101562	-430.9065246582031	-2765.94921875	318.4173278808594	-354.9745788574219	-2241.562744140625	1004.999694824219	-175.6516723632812	-2405.5654296875	953.5833129882812	-437.3955078125	-2371.156494140625	954.3703002929688	-127.4912414550781	-2395.471435546875	1098.759521484375	-299.4925842285156	-2379.32080078125	698.8458862304688	-450.7841186523438	-2665.134033203125	429.4303283691406	-429.5348510742188	-2455.68017578125	730.1099853515625	-448.6646728515625	-2416.906494140625	604.3008422851562	-431.4432373046875	-2080.822265625	125.3979568481445	-136.5683746337891	-2603.2919921875	506.4496459960938	-440.5616455078125	-2493.487060546875	638.7731323242188	-424.2043151855469	-2167.7236328125	721.9405517578125	-134.2183685302734	-2709.0185546875	80.18555450439453	-354.8086242675781	-2242.55029296875	697.5718383789062	-136.7377471923828	-2137.80419921875	626.0221557617188	-153.3253784179688	-2215.4150390625	605.9932861328125	-149.9959411621094	-2479.604736328125	578.3681640625	-429.2141418457031	-2182.906005859375	573.6983032226562	-149.8233337402344	-2541.979736328125	457.7437133789062	-437.3706359863281	-2605.15625	377.8017883300781	-432.6048278808594	-2156.677978515625	447.6465759277344	-141.2816772460938	-2749.971435546875	116.052864074707	-415.6369323730469	-2236.89501953125	455.1568298339844	-143.2592010498047	-2781.2646484375	302.0343322753906	-321.9701538085938	-2164.4140625	346.0828552246094	-152.7960510253906	-2244.557861328125	356.2355651855469	-157.0300903320312	-2742.68408203125	264.3529052734375	-410.1356811523438	-2212.17138671875	160.6314544677734	-185.50439453125	-2022.637939453125	154.1934814453125	-190.5139617919922	-2262.27490234375	142.1611022949219	-250.1568145751953	-2237.601806640625	116.692512512207	-277.7135314941406	-2256.43408203125	113.271728515625	-223.0151824951172	-2797.82568359375	305.6428833007812	-375.2830505371094
3	0.01	-2217.639892578125	1518.037109375	-455.0731506347656	-2259.475341796875	1501.067504882812	-150.5658874511719	-2288.410888671875	1053.795532226562	-443.5467834472656	-2279.7138671875	1054.864624023438	-147.1498260498047	-2240.223388671875	999.1978759765624	-431.2228393554688	-2754.848876953125	325.1978759765625	-355.3399963378906	-2223.90185546875	1004.808288574219	-175.7623291015625	-2388.9462890625	955.1956176757812	-438.4255065917969	-2354.945068359375	953.5748901367188	-128.1501007080078	-2379.31982421875	1099.488403320312	-299.3084716796875	-2363.23291015625	700.4379272460938	-451.2227783203125	-2651.48583984375	433.3429565429688	-429.5000305175781	-2439.74658203125	731.4605712890625	-448.1421813964844	-2401.33154296875	606.1637573242188	-432.3491821289062	-2051.49169921875	128.7424621582031	-138.193115234375	-2588.99609375	510.1288452148438	-441.2474975585938	-2477.495361328125	640.4149169921875	-424.0708312988281	-2154.733154296875	719.9080810546875	-134.3301391601562	-2701.864501953125	84.70675659179688	-355.6184997558594	-2229.09814453125	695.855712890625	-136.8436737060547	-2125.88720703125	624.61669921875	-154.0583343505859	-2201.303466796875	604.6983642578125	-149.0768890380859	-2464.464599609375	580.211669921875	-429.9180908203125	-2170.06396484375	572.3789672851562	-150.9015045166016	-2528.497802734375	460.1906433105469	-438.3040161132812	-2592.806640625	381.209716796875	-434.3432312011719	-2139.220703125	446.4983520507812	-141.1964874267578	-2739.614501953125	125.1429748535156	-416.0044250488281	-2220.17138671875	450.7035827636719	-143.3921813964844	-2769.57470703125	308.721435546875	-322.0221252441406	-2142.46630859375	345.6860046386719	-152.3334808349609	-2222.993896484375	351.7764892578125	-156.3959045410156	-2733.02685546875	270.2068481445312	-410.4901733398438	-2182.2138671875	157.039306640625	-184.2582702636719	-1992.89990234375	159.3616638183594	-190.2968444824219	-2233.665283203125	136.3648834228516	-248.8415069580078	-2206.67236328125	112.2697677612305	-277.0247802734375	-2224.668701171875	107.3474807739258	-221.721923828125	-2787.425048828125	313.2973327636719	-375.5166931152344
4	0.015	-2201.734619140625	1518.357421875	-453.9307861328125	-2243.185546875	1501.17236328125	-149.1281280517578	-2270.97119140625	1054.447509765625	-443.1748352050781	-2263.291259765625	1054.007690429688	-147.1070098876953	-2223.079833984375	999.32080078125	-431.1115417480469	-2743.389404296875	330.9788513183594	-355.0379333496094	-2207.4853515625	1004.320434570312	-176.5744171142578	-2372.247314453125	955.8524169921876	-438.7543334960938	-2338.120361328125	952.8922729492188	-128.4740753173828	-2362.498291015625	1099.526000976562	-298.8626098632812	-2346.3740234375	701.6032104492188	-451.9591064453125	-2638.3349609375	437.6509399414062	-430.4828186035156	-2423.094482421875	732.4228515625	-447.9947204589844	-2384.1845703125	605.8557739257812	-433.4648132324219	-2022.494873046875	129.6808319091797	-138.1091613769531	-2574.09619140625	512.8365478515625	-441.5206298828125	-2461.02734375	641.2645874023438	-424.2296142578125	-2141.76220703125	717.0296630859375	-134.1355133056641	-2693.53369140625	90.87718963623048	-358.7296142578125	-2216.064697265625	693.7784423828125	-137.5704040527344	-2112.13623046875	622.4226684570312	-154.0992126464844	-2188.590576171875	602.4921264648438	-149.377197265625	-2448.1220703125	580.7049560546875	-430.4201354980469	-2155.35302734375	570.2810668945312	-150.9006042480469	-2514.43994140625	461.4723815917969	-439.8865966796875	-2580.158935546875	384.3525085449219	-435.5687561035156	-2121.286865234375	445.6944274902344	-140.6896667480469	-2732.258056640625	131.153564453125	-417.204345703125	-2202.297607421875	446.3915100097656	-142.7552642822266	-2757.631591796875	314.623291015625	-320.7061767578125	-2121.51416015625	344.0617370605469	-151.9296264648438	-2201.195556640625	348.2223205566406	-155.7686004638672	-2723.39501953125	276.4416198730469	-411.1381530761719	-2153.76806640625	154.4900207519531	-183.9371490478516	-1964.37060546875	164.8893432617188	-190.025390625	-2202.302001953125	130.3355407714844	-246.4545135498047	-2175.306884765625	108.7234344482422	-277.0730895996094	-2194.289306640625	102.951789855957	-220.9040069580078	-2776.049560546875	320.0577392578125	-375.3119506835938
5	0.02	-2185.485595703125	1519.03662109375	-452.9554748535156	-2227.72412109375	1501.318359375	-148.5505523681641	-2254.694091796875	1055.070190429688	-443.5361022949219	-2246.55615234375	1053.333862304688	-147.0939483642578	-2206.209716796875	999.987060546875	-430.6022338867188	-2732.16162109375	337.02978515625	-354.6600341796875	-2191.426025390625	1003.681030273438	-177.1485137939453	-2356.242431640625	956.986083984375	-440.1078186035156	-2321.796875	951.7085571289062	-129.1351318359375	-2346.59814453125	1099.912231445312	-298.7726440429688	-2329.458984375	701.5866088867188	-451.9649047851562	-2624.990478515625	441.6997680664062	-431.1241760253906	-2406.12353515625	732.984619140625	-447.9401245117188	-2367.43505859375	607.598388671875	-433.78759765625	-1994.227905273438	132.8314514160156	-137.6496734619141	-2559.1298828125	515.7306518554688	-442.4352722167969	-2444.2099609375	641.9826049804688	-425.0121459960938	-2129.059814453125	714.5579833984375	-135.4259185791016	-2686.0703125	96.06403350830078	-360.828125	-2201.911865234375	691.8975830078125	-135.4274444580078	-2098.767333984375	619.6840209960938	-154.7864227294922	-2176.55419921875	599.8485717773438	-150.0896301269531	-2432.854736328125	583.5681762695312	-431.240966796875	-2139.646728515625	568.1039428710938	-149.7050170898438	-2500.579833984375	462.9304809570312	-440.1243591308594	-2567.74560546875	388.621337890625	-435.8722839355469	-2103.037109375	444.9049072265625	-141.2260437011719	-2724.04296875	137.3636169433594	-418.9873046875	-2184.1474609375	443.0389709472656	-141.4707946777344	-2747.142578125	321.3553466796875	-320.6271362304688	-2100.597900390625	343.6739807128906	-152.2225952148438	-2180.207763671875	344.5073547363281	-154.5538482666016	-2713.76171875	282.9560852050781	-411.3240966796875	-2126.4130859375	152.5653533935547	-183.2635498046875	-1936.914916992188	170.1377258300781	-189.8639068603516	-2172.384521484375	126.1305236816406	-246.0726776123047	-2146.065673828125	105.6287841796875	-276.0151977539062	-2164.21923828125	98.8679428100586	-220.2151489257812	-2764.55322265625	326.2303771972656	-374.0478210449219
